PathFileType	4	(X/Y/Z)	 s08c0301.trc
DataRate	CameraRate	NumFrames	NumMarkers	Units	OrigDataRate	OrigDataStartFrame	OrigNumFrames
200	200	4	50	mm	200	251	2000
Frame#	Time	racr			lacr			c7			jug			rlel			rdr			llel			ldr			s2			lic			ric			lasi			rasi			rpsi			lpsi			rgt			lgt			rth1			rth2			rth3			rth4			rlfc			rmfc			rsh1			rsh2			rsh3			rsh4			rlmal			rmmal			rcal			rtoe			rmt5			lth1			lth2			lth4			lth3			llfc			lmfc			llmal			lmmal			lcal			lmt5			lsh1			lsh2			lsh3			lsh4			ltoe			SBIKE			LBIKE			RBIKE			
		X1	Y1	Z1	X2	Y2	Z2	X3	Y3	Z3	X4	Y4	Z4	X5	Y5	Z5	X6	Y6	Z6	X7	Y7	Z7	X8	Y8	Z8	X9	Y9	Z9	X10	Y10	Z10	X11	Y11	Z11	X12	Y12	Z12	X13	Y13	Z13	X14	Y14	Z14	X15	Y15	Z15	X16	Y16	Z16	X17	Y17	Z17	X18	Y18	Z18	X19	Y19	Z19	X20	Y20	Z20	X21	Y21	Z21	X22	Y22	Z22	X23	Y23	Z23	X24	Y24	Z24	X25	Y25	Z25	X26	Y26	Z26	X27	Y27	Z27	X28	Y28	Z28	X29	Y29	Z29	X30	Y30	Z30	X31	Y31	Z31	X32	Y32	Z32	X33	Y33	Z33	X34	Y34	Z34	X35	Y35	Z35	X36	Y36	Z36	X37	Y37	Z37	X38	Y38	Z38	X39	Y39	Z39	X40	Y40	Z40	X41	Y41	Z41	X42	Y42	Z42	X43	Y43	Z43	X44	Y44	Z44	X45	Y45	Z45	X46	Y46	Z46	X47	Y47	Z47	X48	Y48	Z48	X49	Y49	Z49	X50	Y50	Z50	
251	1.2550	849.572456	1350.921445	-15.636242	860.828148	1348.279933	-337.089008	844.787051	1404.269108	-169.165829	762.789595	1264.329007	-168.219856	678.052564	1130.932655	92.901197	801.156136	904.882487	-23.767780	718.060839	1136.116668	-479.072426	822.214204	895.768652	-404.165788	269.606805	1280.683546	-261.572586	452.638195	1250.929663	-369.469871	388.799549	1259.873157	-62.881165	454.186837	1195.361966	-332.969044	419.039223	1203.943004	-96.224757	296.969601	1313.440811	-203.742916	316.255544	1319.497944	-297.186053	298.019712	1159.554929	-57.619590	385.938507	1139.064822	-421.981872	392.141612	1010.499791	-33.418942	455.702058	948.886720	-25.234672	481.616851	865.875321	-30.352279	487.361657	968.151498	-26.064453	541.928237	759.612420	-36.618279	535.159916	750.895203	-150.936267	463.979451	650.117023	-16.173325	455.182755	562.230625	-35.282847	404.121260	493.842533	-47.086553	486.003018	555.315145	-60.583189	353.985753	384.196355	-61.797126	380.670510	403.445899	-146.607524	274.410877	365.767722	-111.994863	565.241279	315.561127	-86.861792	469.556212	294.221022	-27.891869	437.117078	1013.276145	-412.091641	484.996416	941.971924	-396.815384	513.341865	953.626081	-377.187248	493.328180	853.187136	-397.337087	493.901699	724.290362	-381.707488	467.768018	702.303166	-275.959988	152.888328	476.263256	-406.366071	182.927883	465.455729	-320.267732	104.661511	515.234955	-364.467629	154.419785	304.254156	-415.046048	393.988554	642.990916	-412.561295	338.695421	579.395471	-399.276341	257.237222	544.962620	-405.933669	351.059017	562.856256	-362.556539	218.208078	248.808153	-343.124574	-134.148526	943.708587	-221.443271	26.130684	84.582793	-426.410432	17.205224	80.296438	-28.104479	
252	1.2600	852.033265	1348.841344	-18.317720	860.579200	1348.080482	-340.154542	845.594636	1403.861385	-171.719258	764.155599	1263.592718	-171.413116	680.445214	1130.332695	93.560203	801.135232	904.592317	-23.718879	717.662089	1135.777520	-480.582311	821.770448	895.708491	-404.673120	268.603420	1278.224709	-258.762619	450.640295	1249.815244	-367.941497	390.530746	1255.815409	-61.442130	453.354509	1194.835742	-332.029309	419.471884	1199.502792	-94.663081	296.974334	1311.245971	-200.198929	314.741838	1317.306315	-294.679068	297.978419	1155.123152	-56.998113	386.138050	1138.895508	-421.205564	389.942046	1004.632818	-34.012598	452.299755	941.983179	-25.989314	476.434072	858.276722	-32.380727	484.351874	960.444061	-26.937084	535.890038	751.741310	-38.946549	532.360203	740.990531	-150.329857	459.091346	641.059938	-17.733197	451.525092	553.048312	-36.417663	401.529291	483.674715	-47.760698	483.016436	545.854895	-62.431031	352.443598	373.489323	-61.652885	378.988674	392.806669	-146.457682	272.997040	355.072868	-111.884536	563.870668	305.007821	-86.349190	468.108050	283.069803	-28.095742	439.173278	1013.617800	-411.346192	488.420236	943.447624	-395.431486	516.207540	955.613649	-375.338407	498.845388	854.832159	-396.208647	501.598058	726.927906	-379.438947	473.742931	704.336157	-274.228278	154.935172	486.965023	-405.798908	185.138266	475.733847	-319.659281	106.620556	526.122439	-364.086090	156.077036	315.195847	-414.907588	400.588252	648.084355	-410.584866	343.517727	585.930754	-397.936263	261.203318	553.524567	-404.839601	355.190399	568.668171	-360.776549	219.780947	259.610586	-342.893856	-134.163565	943.653470	-221.292504	26.098971	84.565596	-426.383128	17.198595	80.281654	-28.082973	
253	1.2650	854.624230	1347.184891	-21.225791	860.082649	1348.257438	-343.661093	846.290110	1403.596972	-174.537940	765.655618	1262.863938	-174.574939	683.384469	1130.331829	94.560666	801.215019	904.203487	-23.407622	716.952580	1135.590896	-482.751874	821.397699	895.444702	-404.043786	268.148609	1276.375442	-256.696704	449.167232	1249.740556	-366.839988	392.621468	1251.603168	-59.964669	452.472544	1194.296943	-331.068856	420.189114	1194.723277	-93.238898	297.157688	1308.502550	-197.789028	314.018427	1315.902661	-292.401257	298.277386	1150.239843	-56.305304	386.005704	1138.911521	-420.348138	387.945561	998.493639	-34.592627	448.965246	934.285177	-27.286885	471.489556	850.393041	-34.481493	481.298771	952.381069	-27.647757	529.853739	743.699361	-41.467244	525.302483	732.752405	-153.276771	453.793714	631.860048	-19.304218	447.492978	543.689331	-37.478457	398.457782	473.655390	-48.510354	479.250384	537.238926	-62.615074	350.474194	362.912601	-61.435877	376.412080	382.095291	-146.545262	271.034272	344.683766	-111.655488	561.732854	292.567737	-87.836289	466.063748	272.087425	-28.335693	441.040002	1013.936860	-410.804737	491.811659	944.945841	-394.297823	519.133320	957.839841	-373.937239	504.358393	856.526786	-394.895837	509.243228	729.829919	-376.994143	482.511706	706.318495	-271.391737	157.531123	497.614201	-405.065518	188.077729	485.857181	-319.133208	108.949394	536.793962	-363.574186	158.518690	326.001636	-414.683158	407.220787	653.372360	-408.461131	348.525336	592.424719	-396.232995	265.490269	562.146204	-403.552461	359.829170	574.843612	-359.303706	222.028576	270.262618	-342.616465	-134.017631	943.712277	-221.212738	26.094011	84.565860	-426.355646	17.176533	80.252121	-28.060596	
254	1.2700	857.182800	1345.949029	-24.540192	859.436274	1348.625849	-347.271953	846.872065	1403.669688	-177.489922	767.074982	1262.460627	-177.858421	686.847204	1130.623770	95.678955	801.229056	903.660051	-22.985026	716.271722	1135.365789	-485.041476	820.988465	895.216697	-403.758016	267.706154	1274.683893	-253.717006	447.516901	1249.759513	-365.665099	394.957349	1247.194348	-58.461548	451.542413	1193.871966	-330.062031	421.057674	1189.815964	-91.649974	297.474319	1305.663037	-195.384186	313.080897	1314.560667	-289.597022	298.913342	1145.351569	-55.443611	385.491599	1139.151079	-419.271876	386.092544	992.135038	-35.098626	445.612316	926.621563	-28.580971	466.357565	842.286405	-36.497999	478.259545	944.061949	-28.572867	523.025353	735.548895	-44.422227	517.450221	724.564393	-156.073410	448.236016	622.817640	-20.565542	443.020082	534.467036	-38.603478	394.935021	463.726800	-49.161010	474.739247	528.504557	-63.738574	347.953556	352.501389	-61.209491	373.580938	371.580456	-146.522860	268.411104	334.538681	-111.259839	558.987246	281.318382	-88.243997	463.379644	261.209271	-28.544871	442.873517	1014.315850	-410.409639	495.233069	946.629886	-393.345389	522.224106	960.284551	-372.951614	509.755754	858.336152	-393.210728	516.847668	733.125062	-374.555162	489.356619	709.328884	-269.958787	160.507970	508.351853	-404.161606	190.498961	495.829790	-318.352066	111.424841	547.408375	-362.771566	161.578148	336.930595	-414.527130	413.751554	658.784996	-405.876264	353.885707	599.586536	-394.950795	270.001656	570.702965	-402.027216	364.338834	580.841872	-357.199661	225.196035	281.051504	-342.483784	-133.875879	943.747607	-221.233281	26.129071	84.545270	-426.315133	17.203346	80.265295	-28.035723	
